<?xml version="1.0" standalone="no"?>
<!DOCTYPE svg PUBLIC "-//W3C//DTD SVG 20010904//EN"
 "http://www.w3.org/TR/2001/REC-SVG-20010904/DTD/svg10.dtd">
<svg version="1.0" xmlns="http://www.w3.org/2000/svg"
 width="261.000000pt" height="261.000000pt" viewBox="0 0 261.000000 261.000000"
 preserveAspectRatio="xMidYMid meet">
<metadata>
Created by potrace 1.11, written by Peter Selinger 2001-2013
</metadata>
<g transform="translate(0.000000,261.000000) scale(0.100000,-0.100000)"
fill="#000000" stroke="none">
<path d="M93 2059 c-32 -16 -48 -33 -68 -72 l-25 -51 0 -624 c1 -597 1 -626
20 -662 25 -49 82 -96 129 -106 20 -4 167 -8 326 -9 328 -2 339 0 402 68 21
23 83 92 138 152 55 61 120 132 145 158 112 119 108 175 -21 302 l-70 70 -82
-85 c-45 -47 -130 -137 -189 -201 -139 -150 -157 -159 -316 -159 -112 0 -123
2 -148 23 l-27 24 -1 401 c-1 221 2 415 6 430 12 46 44 56 187 56 158 -1 153
3 326 -176 71 -73 267 -275 436 -448 169 -173 356 -367 417 -430 64 -67 135
-130 168 -150 l58 -35 261 -1 c183 0 273 3 305 12 59 17 114 77 129 142 13 60
13 1246 -1 1282 -14 37 -48 70 -93 91 -36 17 -69 19 -345 18 -374 0 -370 1
-479 -124 -24 -27 -83 -93 -131 -145 -159 -173 -170 -191 -170 -262 0 -51 22
-86 100 -163 l62 -60 46 51 c26 28 99 106 162 173 63 68 124 135 135 148 11
14 38 37 60 51 37 24 49 25 160 26 66 0 132 -3 146 -7 45 -12 49 -38 50 -330
0 -582 2 -545 -26 -572 -23 -24 -29 -25 -157 -25 -163 0 -162 0 -311 153 -957
985 -1014 1043 -1070 1067 -45 18 -69 20 -325 20 -260 0 -280 -1 -319 -21z"/>
</g>
</svg>
